<?xml version="1.0" encoding="utf-8"?>
<!-- Generator: Adobe Illustrator 19.1.0, SVG Export Plug-In . SVG Version: 6.00 Build 0)  -->
<svg version="1.1" id="Layer_1" xmlns="http://www.w3.org/2000/svg" xmlns:xlink="http://www.w3.org/1999/xlink" x="0px" y="0px"
	 viewBox="0 0 960 560" style="enable-background:new 0 0 960 560;" xml:space="preserve">
<g>
	<path d="M751.3,544.5h-535V9.5h535V544.5z M248.7,512.1h470.2V41.9H248.7V512.1z"/>
	<g>
		<path d="M380.7,379.1l99-217.1c1-1.9,3.9-3.5,5.5-3.5h3.2c1.6,0,4.5,1.6,5.5,3.5l98.4,217.1c1.9,4.2-0.6,8.4-5.5,8.4h-20.3
			c-3.9,0-6.1-1.9-7.4-4.8l-20-44.2H433.6c-6.4,14.8-13.2,29.4-19.7,44.2c-1,2.3-3.5,4.8-7.4,4.8h-20.3
			C381.4,387.5,378.8,383.3,380.7,379.1z M526.8,310.7l-39.7-88.4h-1.6l-39.3,88.4H526.8z"/>
	</g>
</g>
</svg>
