<?xml version="1.0" encoding="utf-8"?>
<!-- Generator: Adobe Illustrator 19.1.0, SVG Export Plug-In . SVG Version: 6.00 Build 0)  -->
<svg version="1.1" id="Layer_1" xmlns="http://www.w3.org/2000/svg" xmlns:xlink="http://www.w3.org/1999/xlink" x="0px" y="0px"
	 viewBox="0 0 50 50" style="enable-background:new 0 0 50 50;" xml:space="preserve">
<g>
	<g>
		<path d="M50,50H0V0h50V50z M3,47h44V3H3V47z"/>
		<g>
			<path d="M15.4,34.5l9.3-20.3c0.1-0.2,0.4-0.3,0.5-0.3h0.3c0.1,0,0.4,0.1,0.5,0.3l9.2,20.3c0.2,0.4-0.1,0.8-0.5,0.8h-1.9
				c-0.4,0-0.6-0.2-0.7-0.4l-1.9-4.1h-9.9c-0.6,1.4-1.2,2.7-1.8,4.1c-0.1,0.2-0.3,0.4-0.7,0.4h-1.9C15.4,35.3,15.2,34.9,15.4,34.5z
				 M29,28.1l-3.7-8.3h-0.1l-3.7,8.3C21.5,28.1,29,28.1,29,28.1z"/>
		</g>
	</g>
</g>
</svg>
