<?xml version="1.0" encoding="utf-8"?>
<!-- Generator: Adobe Illustrator 19.1.0, SVG Export Plug-In . SVG Version: 6.00 Build 0)  -->
<svg version="1.1" id="Layer_1" xmlns="http://www.w3.org/2000/svg" xmlns:xlink="http://www.w3.org/1999/xlink" x="0px" y="0px"
	 viewBox="0 0 60 60" style="enable-background:new 0 0 60 60;" xml:space="preserve">
<style type="text/css">
	.st0{fill:#FFFFFF;}
</style>
<g>
	<path d="M0,60C0,40,0,20,0,0c20,0,40.1,0,60.1,0c0,20,0,40,0,60C40.1,60,20.1,60,0,60z M30.1,36.2c2.8,0,5.6,0,8.4,0
		c0.1,0,0.2,0,0.3,0c0.5,0,1-0.4,1-0.9c0.1-0.5-0.2-1-0.7-1.2C39.1,34,38.8,34,38.6,34c-5.6,0-11.3,0-16.9,0c-0.1,0-0.2,0-0.3,0
		c-0.5,0-0.9,0.4-1,0.9c-0.1,0.5,0.1,0.9,0.5,1.2c0.2,0.1,0.4,0.2,0.7,0.2C24.5,36.2,27.3,36.2,30.1,36.2z M30.2,23.9
		c-2.8,0-5.6,0-8.4,0c-0.1,0-0.2,0-0.3,0c-0.5,0-0.8,0.3-0.9,0.7c-0.2,0.4-0.1,0.8,0.2,1.1c0.2,0.3,0.6,0.4,1,0.4c5.7,0,11.3,0,17,0
		c0.1,0,0.2,0,0.3,0c0.5,0,0.9-0.4,1-0.9c0.1-0.5-0.2-1-0.6-1.2c-0.2-0.1-0.4-0.1-0.6-0.1C35.8,23.9,33,23.9,30.2,23.9z M30.2,29
		c-2.8,0-5.6,0-8.4,0c-0.1,0-0.2,0-0.3,0c-0.7,0.1-1.2,0.8-0.9,1.4c0.2,0.5,0.6,0.7,1.2,0.7c5.7,0,11.3,0,17,0c0.1,0,0.2,0,0.3,0
		c0.5-0.1,1-0.4,1-0.9c0.1-0.5-0.2-1-0.7-1.2C39.1,29,38.9,29,38.7,29C35.8,29,33,29,30.2,29z"/>
	<path class="st0" d="M30.1,36.2c-2.8,0-5.7,0-8.5,0c-0.2,0-0.5,0-0.7-0.2c-0.4-0.2-0.6-0.7-0.5-1.2c0.1-0.5,0.5-0.8,1-0.9
		c0.1,0,0.2,0,0.3,0c5.6,0,11.3,0,16.9,0c0.2,0,0.4,0,0.6,0.1c0.5,0.2,0.7,0.7,0.7,1.2c-0.1,0.5-0.5,0.9-1,0.9c-0.1,0-0.2,0-0.3,0
		C35.7,36.2,32.9,36.2,30.1,36.2z"/>
	<path class="st0" d="M30.2,23.9c2.8,0,5.7,0,8.5,0c0.2,0,0.4,0,0.6,0.1c0.5,0.2,0.7,0.7,0.6,1.2c-0.1,0.5-0.5,0.8-1,0.9
		c-0.1,0-0.2,0-0.3,0c-5.7,0-11.3,0-17,0c-0.4,0-0.7-0.1-1-0.4c-0.3-0.3-0.4-0.7-0.2-1.1c0.2-0.4,0.5-0.6,0.9-0.7c0.1,0,0.2,0,0.3,0
		C24.6,23.9,27.4,23.9,30.2,23.9z"/>
	<path class="st0" d="M30.2,29c2.8,0,5.7,0,8.5,0c0.2,0,0.4,0,0.6,0.1c0.5,0.2,0.7,0.7,0.7,1.2c-0.1,0.5-0.5,0.9-1,0.9
		c-0.1,0-0.2,0-0.3,0c-5.7,0-11.3,0-17,0c-0.6,0-1-0.3-1.2-0.7c-0.2-0.7,0.2-1.4,0.9-1.4c0.1,0,0.2,0,0.3,0C24.6,29,27.4,29,30.2,29
		z"/>
</g>
</svg>
