<?xml version="1.0" encoding="utf-8"?>
<!-- Generator: Adobe Illustrator 19.1.0, SVG Export Plug-In . SVG Version: 6.00 Build 0)  -->
<svg version="1.1" id="Layer_1" xmlns="http://www.w3.org/2000/svg" xmlns:xlink="http://www.w3.org/1999/xlink" x="0px" y="0px"
	 viewBox="0 0 60 60" style="enable-background:new 0 0 60 60;" xml:space="preserve">
<style type="text/css">
	.st0{fill:#FFFFFF;}
</style>
<path class="st0" d="M0,0c0,20,0,40,0,60c20,0,40,0,60,0c0-20,0-40,0-60C40,0,20,0,0,0z M36.6,36.2c-0.4,0.3-1,0.2-1.3-0.1
	c-0.1-0.1-0.1-0.1-0.2-0.2c-1.7-1.7-3.5-3.5-5.2-5.2c-1.8,1.8-3.5,3.5-5.3,5.3c-0.4,0.4-0.9,0.5-1.3,0.3c-0.6-0.3-0.8-1.1-0.4-1.7
	c0.1-0.1,0.2-0.2,0.2-0.2c1.7-1.7,3.4-3.4,5.2-5.2c-1.8-1.7-3.5-3.5-5.3-5.2c-0.3-0.3-0.4-0.6-0.4-0.9c0-0.4,0.3-0.8,0.7-0.9
	c0.4-0.2,0.8-0.1,1.1,0.2c0.1,0.1,0.2,0.1,0.2,0.2c1.7,1.7,3.4,3.4,5.2,5.2c1.7-1.7,3.5-3.5,5.2-5.2c0.1-0.1,0.3-0.3,0.5-0.4
	c0.5-0.2,1,0,1.3,0.4c0.3,0.4,0.3,1-0.1,1.4c-0.1,0.1-0.1,0.1-0.2,0.2c-1.7,1.7-3.5,3.5-5.2,5.2c1.7,1.7,3.5,3.5,5.2,5.2
	c0.1,0.1,0.3,0.3,0.4,0.5C37.2,35.3,37,35.8,36.6,36.2z"/>
</svg>
